<svg width="25" height="24" viewBox="0 0 25 24" fill="none" xmlns="http://www.w3.org/2000/svg">
  <path
    d="M13.095 6.46608H12.4164C12.0912 6.46608 11.8155 6.35373 11.5893 6.12903C11.3631 5.90433 11.25 5.63047 11.25 5.30747C11.25 4.98446 11.3631 4.71763 11.5893 4.50697C11.8155 4.28227 12.0912 4.16992 12.4164 4.16992H17.7606C19.0613 4.16992 20.1994 4.41569 21.175 4.90722C22.1646 5.39875 22.921 6.10094 23.4441 7.01379C23.9814 7.91259 24.25 8.9729 24.25 10.1947C24.25 11.3884 23.9814 12.4417 23.4441 13.3546C22.921 14.2534 22.1646 14.9485 21.175 15.4401C20.1994 15.9316 19.0613 16.1774 17.7606 16.1774H13.095V6.46608ZM14.3038 21.1699C13.9787 21.1699 13.6959 21.0576 13.4555 20.8329C13.2293 20.5941 13.1162 20.3132 13.1162 19.9902V14.2393H15.4914V19.9902C15.4914 20.3132 15.3783 20.5941 15.1521 20.8329C14.9259 21.0576 14.6431 21.1699 14.3038 21.1699ZM22.2141 21.1699C21.9596 21.1699 21.7334 21.0997 21.5355 20.9593C21.3375 20.8048 21.1962 20.6152 21.1113 20.3905L18.8634 14.7238L21.0053 13.9655L23.2533 19.6743C23.3381 19.913 23.3381 20.1517 23.2533 20.3905C23.1826 20.6292 23.0483 20.8188 22.8503 20.9593C22.6665 21.0997 22.4545 21.1699 22.2141 21.1699ZM17.9303 13.9023C18.7361 13.9023 19.436 13.7548 20.0298 13.4599C20.6377 13.1509 21.1043 12.7226 21.4294 12.1749C21.7688 11.6131 21.9384 10.9601 21.9384 10.2158C21.9384 9.44336 21.7688 8.7833 21.4294 8.2356C21.1043 7.67384 20.6377 7.24551 20.0298 6.95059C19.436 6.64163 18.7361 6.48714 17.9303 6.48714H15.4914V13.9023H17.9303Z"
    fill="currentColor" stroke="currentColor" stroke-width="0.5" />
  <path
    d="M2.97844 21.1699C2.65362 21.1699 2.38078 21.058 2.15991 20.8341C1.95203 20.5963 1.84808 20.3164 1.84808 19.9946V6.31066C1.84808 5.97486 1.95203 5.69502 2.15991 5.47116C2.38078 5.23329 2.65362 5.11437 2.97844 5.11437C3.27727 5.11437 3.53062 5.23329 3.7385 5.47116C3.94638 5.69502 4.05032 5.97486 4.05032 6.31066V19.9946C4.05032 20.3164 3.94638 20.5963 3.7385 20.8341C3.53062 21.058 3.27727 21.1699 2.97844 21.1699ZM3.89441 12.586C3.60858 12.586 3.36172 12.481 3.15384 12.2712C2.95895 12.0613 2.8615 11.8094 2.8615 11.5156C2.8615 11.2078 2.96544 10.9489 3.17333 10.7391C3.38121 10.5152 3.62157 10.4033 3.89441 10.4033H10.4705C10.7563 10.4033 10.9967 10.5152 11.1916 10.7391C11.3865 10.9489 11.4839 11.2008 11.4839 11.4946C11.4839 11.8024 11.3865 12.0613 11.1916 12.2712C10.9967 12.481 10.7563 12.586 10.4705 12.586H3.89441ZM1.32189 6.45757C1.02306 6.45757 0.769702 6.34564 0.561821 6.12177C0.35394 5.8979 0.25 5.62507 0.25 5.30325C0.25 4.99544 0.35394 4.72959 0.561821 4.50572C0.769702 4.28185 1.02306 4.16992 1.32189 4.16992H13.1976C13.4834 4.16992 13.7303 4.28185 13.9382 4.50572C14.1461 4.72959 14.25 4.99544 14.25 5.30325C14.25 5.62507 14.1461 5.8979 13.9382 6.12177C13.7303 6.34564 13.4834 6.45757 13.1976 6.45757H1.32189Z"
    fill="currentColor" stroke="currentColor" stroke-width="0.5" />
</svg>