<svg width="25" height="24" viewBox="0 0 25 24" fill="none" xmlns="http://www.w3.org/2000/svg">
  <path
    d="M14.5887 21C14.2704 21 13.9936 20.8893 13.7584 20.6679C13.537 20.4326 13.4263 20.149 13.4263 19.8168V5.24542L14.4849 6.26252H12.4714C12.1808 6.26252 11.9318 6.16565 11.7242 5.97192C11.5305 5.76435 11.4336 5.52218 11.4336 5.24542C11.4336 4.94099 11.5305 4.6919 11.7242 4.49817C11.9318 4.30444 12.1808 4.20757 12.4714 4.20757H14.7547C15.073 4.20757 15.3221 4.24909 15.502 4.33211C15.6957 4.4013 15.9102 4.53968 16.1454 4.74725L23.099 10.1441L22.0612 10.6215V5.18315C22.0612 4.86488 22.1719 4.58812 22.3933 4.35287C22.6147 4.11762 22.8846 4 23.2028 4C23.5349 4 23.8117 4.11762 24.0331 4.35287C24.2684 4.58812 24.386 4.86488 24.386 5.18315V19.8376C24.386 20.1559 24.2684 20.4326 24.0331 20.6679C23.8117 20.8893 23.5419 21 23.2236 21C22.8915 21 22.6147 20.8893 22.3933 20.6679C22.1719 20.4326 22.0612 20.1559 22.0612 19.8376V11.3065L23.099 13.0501L14.7755 6.55312L15.7718 6.03419V19.8168C15.7718 20.149 15.6542 20.4326 15.4189 20.6679C15.1837 20.8893 14.9069 21 14.5887 21Z"
    fill="currentColor" stroke="currentColor" stroke-width="0.5" />
  <path
    d="M3.15598 19.8163C2.81003 19.8163 2.51943 19.7056 2.28419 19.4842C2.06278 19.2628 1.95208 18.986 1.95208 18.6539V6.32425C1.95208 5.99213 2.06278 5.71537 2.28419 5.49397C2.51943 5.25872 2.81003 5.1411 3.15598 5.1411C3.47426 5.1411 3.7441 5.25872 3.96551 5.49397C4.18691 5.72921 4.29762 6.00597 4.29762 6.32425V18.6539C4.29762 18.9722 4.18691 19.249 3.96551 19.4842C3.7441 19.7056 3.47426 19.8163 3.15598 19.8163ZM1.39164 20.8126C1.07336 20.8126 0.803521 20.7019 0.582112 20.4805C0.360704 20.2591 0.25 19.9962 0.25 19.6918C0.25 19.3735 0.360704 19.1037 0.582112 18.8822C0.803521 18.6608 1.07336 18.5501 1.39164 18.5501H10.3172C10.6216 18.5501 10.8845 18.6608 11.1059 18.8822C11.3273 19.1037 11.438 19.3666 11.438 19.671C11.438 19.9893 11.3273 20.2591 11.1059 20.4805C10.8845 20.7019 10.6216 20.8126 10.3172 20.8126H1.39164ZM4.13156 12.0117C3.82713 12.0117 3.5642 11.9079 3.3428 11.7003C3.13523 11.4927 3.03144 11.2367 3.03144 10.9323C3.03144 10.6417 3.13523 10.3926 3.3428 10.1851C3.5642 9.96364 3.82713 9.85294 4.13156 9.85294H9.77747C10.0681 9.85294 10.3172 9.96364 10.5247 10.1851C10.7323 10.3926 10.8361 10.6417 10.8361 10.9323C10.8361 11.2367 10.7323 11.4927 10.5247 11.7003C10.3172 11.9079 10.0681 12.0117 9.77747 12.0117H4.13156ZM1.39164 6.46955C1.07336 6.46955 0.803521 6.35884 0.582112 6.13743C0.360704 5.91602 0.25 5.6531 0.25 5.34867C0.25 5.03039 0.360704 4.76055 0.582112 4.53914C0.803521 4.31773 1.07336 4.20703 1.39164 4.20703H14.2964C14.6147 4.20703 14.8845 4.31773 15.1059 4.53914C15.3273 4.76055 15.438 5.02347 15.438 5.32791C15.438 5.64618 15.3273 5.91602 15.1059 6.13743C14.8984 6.35884 14.6354 6.46955 14.3172 6.46955H1.39164Z"
    fill="currentColor" stroke="currentColor" stroke-width="0.5" />
</svg>