<svg width="200" height="22" viewBox="0 0 200 22" fill="none" xmlns="http://www.w3.org/2000/svg">
  <path
    d="M126.858 0L148.674 10.8584L168.593 0H199.442V2.91504H192.432C190.831 2.91506 189.566 3.0909 188.637 3.4375C187.708 3.786 187.039 4.3133 186.636 5.01953C186.231 5.72569 186.029 6.61985 186.029 7.7002V14.2998C186.029 15.382 186.231 16.2743 186.636 16.9805C187.041 17.6867 187.708 18.214 188.637 18.5625C189.566 18.9109 190.831 19.0849 192.432 19.085H199.442V22H91.582V19.085H98.6201C100.202 19.0849 101.459 18.911 102.388 18.5625C103.317 18.214 103.989 17.6867 104.403 16.9805C104.818 16.2743 105.024 15.382 105.024 14.2998V7.7002C105.024 6.61804 104.818 5.72568 104.403 5.01953C103.989 4.31333 103.317 3.786 102.388 3.4375C101.459 3.08901 100.202 2.91506 98.6201 2.91504H39.2754C37.7117 2.91504 36.4607 3.09088 35.5225 3.4375C34.5842 3.786 33.9087 4.3133 33.4941 5.01953C33.0797 5.72572 32.8721 6.61975 32.8721 7.7002V8.41602H82.0889V11.3037H32.8721V14.2998C32.8721 15.3821 33.0797 16.2743 33.4941 16.9805C33.9087 17.6867 34.5842 18.214 35.5225 18.5625C36.4607 18.911 37.7117 19.085 39.2754 19.085H48.7148V22H0V19.085H7.03809C8.62018 19.0849 9.88017 18.911 10.8184 18.5625C11.7566 18.214 12.4287 17.6867 12.834 16.9805C13.2391 16.2743 13.4404 15.382 13.4404 14.2998V7.7002C13.4404 6.618 13.2373 5.72569 12.834 5.01953C12.4287 4.3133 11.7566 3.786 10.8184 3.4375C9.88017 3.08903 8.62018 2.91506 7.03809 2.91504H0V0H126.858ZM113.012 9.10156C112.064 9.17535 111.305 9.48136 110.735 10.0234C110.166 10.5636 109.881 11.2571 109.881 12.0996V14.4912C109.881 15.5366 110.092 16.3941 110.516 17.0615V17.0635C110.939 17.7328 111.62 18.2369 112.559 18.5762C113.497 18.9154 114.748 19.085 116.312 19.085H134.747L116.09 9.73438C114.985 9.2402 113.959 9.02781 113.012 9.10156ZM163.575 8.56543C162.628 8.42727 161.557 8.64231 160.361 9.21191L142.836 19.085H160.169C161.714 19.0849 162.955 18.9109 163.894 18.5625C164.832 18.214 165.517 17.6965 165.95 17.0088C166.383 16.321 166.598 15.4449 166.598 14.3828V12.0996C166.598 11.2017 166.331 10.4218 165.798 9.76172C165.265 9.10173 164.523 8.70371 163.575 8.56543Z"
    fill="currentColor" />
</svg>
